<svg xmlns="http://www.w3.org/2000/svg" width="26.748" height="21.411" viewBox="0 0 26.748 21.411">
  <g id="Dropdown_arrow_black" data-name="Dropdown arrow black" transform="translate(-7224.798 776.003) rotate(-90)">
    <g id="Group_1087" data-name="Group 1087" transform="matrix(-0.035, 0.999, -0.999, -0.035, 776.41, 7225.287)">
      <path id="Path_8402" data-name="Path 8402" d="M24.906,3.146c.513-1.358-.25-2.336-.939-2.411A122.38,122.38,0,0,0,2.384.278a2.485,2.485,0,0,0-2.355,2.1,1.536,1.536,0,0,0,1.6,1.935,116.676,116.676,0,0,1,20.589.365,2.382,2.382,0,0,0,2.688-1.537Z" transform="translate(0 8.54)" fill="#634D40"/>
      <path id="Path_6360" data-name="Path 6360" d="M8.949,12.593q-.8.611-1.616,1.209Q4.5,15.866,1.454,17.75c-1.123.7.267,3.835,1.546,3.041q3.9-2.416,7.465-5.127c1.182-.9,2.375-1.812,3.463-2.779,1.2-1.072.791-2.561-.245-3.632C10.416,5.858,4.778,4.23,1.858.623,1.478.154.747-.333.232.309c-.486.606-.128,1.75.32,2.3A22.772,22.772,0,0,0,6.575,7.455c1.134.688,2.289,1.355,3.394,2.074l.162.106" transform="translate(11.623)" fill="#634D40"/>
    </g>
  </g>
</svg>
