<?xml version="1.0" encoding="utf-8"?>
<!-- Generator: Adobe Illustrator 24.1.2, SVG Export Plug-In . SVG Version: 6.00 Build 0)  -->
<svg version="1.1" id="work" xmlns="http://www.w3.org/2000/svg" xmlns:xlink="http://www.w3.org/1999/xlink" x="0px" y="0px"
	 viewBox="0 0 2500 2500" style="enable-background:new 0 0 2500 2500;" xml:space="preserve">
<style type="text/css">
	.st0{fill-rule:evenodd;clip-rule:evenodd;fill:#FEA7A8;}
	.st1{fill:none;stroke:#09072B;stroke-width:2;}
	.st2{fill-rule:evenodd;clip-rule:evenodd;fill:#261A5E;}
	.st3{fill:none;stroke:#FFFFFF;stroke-width:2;}
	.st4{fill-rule:evenodd;clip-rule:evenodd;fill:#0F0B47;}
	.st5{opacity:0.3;fill:none;stroke:#FFFFFF;stroke-width:2;enable-background:new    ;}
	.st6{fill-rule:evenodd;clip-rule:evenodd;fill:#3D9BEF;}
	.st7{opacity:0.1;fill-rule:evenodd;clip-rule:evenodd;fill:#0F0B47;enable-background:new    ;}
	.st8{fill-rule:evenodd;clip-rule:evenodd;fill:#E19394;}
	.st9{fill-rule:evenodd;clip-rule:evenodd;fill:#372A7F;}
	.st10{fill-rule:evenodd;clip-rule:evenodd;fill:#54479C;}
	.st11{fill:none;stroke:#0F0B47;stroke-width:2;}
	.st12{fill:none;stroke:#372A7F;stroke-width:2;}
	.st13{fill-rule:evenodd;clip-rule:evenodd;fill:#FFFFFF;}
	.st14{fill:#FFD884;}
	.st15{fill:#FFBF41;}
	.st16{fill:#58B8C0;}
	.st17{fill:#EBD9EC;}
	.st18{fill-rule:evenodd;clip-rule:evenodd;fill:#B3DBC9;}
	.st19{fill-rule:evenodd;clip-rule:evenodd;fill:#BCE6D3;}
	.st20{fill-rule:evenodd;clip-rule:evenodd;fill:#F69800;}
	.st21{opacity:0.5;fill:none;stroke:#FFFFFF;stroke-width:2;enable-background:new    ;}
	.st22{opacity:0.2;fill-rule:evenodd;clip-rule:evenodd;fill:#261A5E;enable-background:new    ;}
	.st23{fill-rule:evenodd;clip-rule:evenodd;fill:#003E8C;}
	.st24{fill-rule:evenodd;clip-rule:evenodd;fill:#08234A;}
	.st25{fill-rule:evenodd;clip-rule:evenodd;fill:#FFFCF8;}
	.st26{fill-rule:evenodd;clip-rule:evenodd;fill:#DBD8FF;}
	.st27{fill-rule:evenodd;clip-rule:evenodd;fill:#C2C0E7;}
	.st28{fill-rule:evenodd;clip-rule:evenodd;fill:#3F38A2;}
	.st29{fill-rule:evenodd;clip-rule:evenodd;fill:#363082;}
	.st30{fill:none;stroke:#FFFFFF;stroke-width:2;stroke-linecap:round;}
	.st31{fill:none;stroke:#DBD8FF;stroke-width:2;stroke-linecap:round;}
	.st32{fill-rule:evenodd;clip-rule:evenodd;fill:#003E8C;stroke:#0F0B47;stroke-width:2;}
	.st33{fill-rule:evenodd;clip-rule:evenodd;fill:#4B55F3;}
	.st34{fill-rule:evenodd;clip-rule:evenodd;fill:#181364;}
	.st35{fill-rule:evenodd;clip-rule:evenodd;fill:#06041A;}
	.st36{opacity:0.6;fill:none;stroke:#FFFFFF;stroke-width:2;enable-background:new    ;}
	.st37{fill-rule:evenodd;clip-rule:evenodd;fill:#FFD422;}
	.st38{fill-rule:evenodd;clip-rule:evenodd;fill:#FFFFFF;stroke:#0F0B47;stroke-width:2;}
	.st39{fill-rule:evenodd;clip-rule:evenodd;fill:#FF0021;}
	.st40{fill:none;stroke:#0F0B47;stroke-width:2;stroke-linecap:round;}
	.st41{fill-rule:evenodd;clip-rule:evenodd;fill:#FEA7A8;stroke:#0F0B47;stroke-width:2;}
	.st42{fill-rule:evenodd;clip-rule:evenodd;fill:#EA0422;}
	.st43{fill-rule:evenodd;clip-rule:evenodd;fill:#0C0936;}
	.st44{fill-rule:evenodd;clip-rule:evenodd;fill:#F3A3A4;}
	.st45{fill-rule:evenodd;clip-rule:evenodd;fill:#0F0B47;stroke:#FFFFFF;stroke-width:2;}
	.st46{fill-rule:evenodd;clip-rule:evenodd;fill:#F7A4A5;}
	.st47{opacity:0.4;fill:none;stroke:#FFFFFF;stroke-width:2;enable-background:new    ;}
	.st48{fill-rule:evenodd;clip-rule:evenodd;fill:#0E8B80;}
	.st49{fill-rule:evenodd;clip-rule:evenodd;fill:#BF4A24;}
	.st50{fill:none;stroke:#FFFCF8;stroke-width:2;}
	.st51{fill:none;stroke:#BF4A24;stroke-width:2;}
	.st52{fill-rule:evenodd;clip-rule:evenodd;fill:#FF77A5;}
	.st53{fill-rule:evenodd;clip-rule:evenodd;fill:#FFC84B;}
	.st54{fill-rule:evenodd;clip-rule:evenodd;fill:#ECB947;}
	.st55{fill-rule:evenodd;clip-rule:evenodd;fill:#0C8076;}
	.st56{fill-rule:evenodd;clip-rule:evenodd;fill:#F9F9F9;}
	.st57{fill:none;stroke:#F9F9F9;stroke-width:2;}
	.st58{fill-rule:evenodd;clip-rule:evenodd;fill:#FF622D;}
	.st59{fill-rule:evenodd;clip-rule:evenodd;fill:#DB4F20;}
	.st60{fill-rule:evenodd;clip-rule:evenodd;fill:#006D85;}
	.st61{fill-rule:evenodd;clip-rule:evenodd;fill:#0094B4;}
	.st62{fill-rule:evenodd;clip-rule:evenodd;fill:#733014;}
	.st63{fill:none;stroke:#733014;stroke-width:2;}
	.st64{opacity:0.1;fill-rule:evenodd;clip-rule:evenodd;enable-background:new    ;}
	.st65{fill-rule:evenodd;clip-rule:evenodd;}
	.st66{fill:none;stroke:#000000;stroke-width:2;}
	.st67{fill-rule:evenodd;clip-rule:evenodd;fill:#4267FF;}
	.st68{fill-rule:evenodd;clip-rule:evenodd;fill:#E19495;}
	.st69{fill-rule:evenodd;clip-rule:evenodd;fill:#202746;}
	.st70{fill-rule:evenodd;clip-rule:evenodd;fill:#2945BB;}
	.st71{fill-rule:evenodd;clip-rule:evenodd;fill:#774033;}
	.st72{fill:none;stroke:#774033;stroke-width:2;}
	.st73{fill-rule:evenodd;clip-rule:evenodd;fill:#EEA013;}
	.st74{fill-rule:evenodd;clip-rule:evenodd;fill:#DB9311;}
	.st75{fill-rule:evenodd;clip-rule:evenodd;fill:#3E60EB;}
	.st76{opacity:0.1;fill-rule:evenodd;clip-rule:evenodd;fill:#FFFFFF;enable-background:new    ;}
	.st77{fill:none;stroke:#261A5E;stroke-width:2;}
	.st78{fill-rule:evenodd;clip-rule:evenodd;fill:#FF5D5C;}
	.st79{fill-rule:evenodd;clip-rule:evenodd;fill:#D95150;}
	.st80{fill-rule:evenodd;clip-rule:evenodd;fill:#03CEFA;}
	.st81{fill-rule:evenodd;clip-rule:evenodd;fill:#03BCE4;}
	.st82{fill-rule:evenodd;clip-rule:evenodd;fill:#402E92;}
	.st83{fill-rule:evenodd;clip-rule:evenodd;fill:#DC678F;}
	.st84{fill-rule:evenodd;clip-rule:evenodd;fill:#98C3AF;}
	.st85{fill-rule:evenodd;clip-rule:evenodd;fill:#19D9EB;}
	.st86{fill-rule:evenodd;clip-rule:evenodd;fill:#13C3D3;}
	.st87{fill-rule:evenodd;clip-rule:evenodd;fill:#10A6B4;}
	.st88{fill-rule:evenodd;clip-rule:evenodd;fill:#FEDD00;}
	.st89{fill-rule:evenodd;clip-rule:evenodd;fill:#358BD7;}
	.st90{fill-rule:evenodd;clip-rule:evenodd;fill:#017F5D;}
	.st91{opacity:0.2;fill:none;stroke:#FFFFFF;stroke-width:2;enable-background:new    ;}
	.st92{fill-rule:evenodd;clip-rule:evenodd;fill:#00976F;}
	.st93{fill-rule:evenodd;clip-rule:evenodd;fill:#FF2200;}
	.st94{fill-rule:evenodd;clip-rule:evenodd;fill:#EE2304;}
	.st95{opacity:0.1;fill-rule:evenodd;clip-rule:evenodd;fill:#002C46;enable-background:new    ;}
	.st96{fill-rule:evenodd;clip-rule:evenodd;fill:#FF81C3;}
	.st97{opacity:0.3;fill-rule:evenodd;clip-rule:evenodd;fill:#BD461E;enable-background:new    ;}
	.st98{fill-rule:evenodd;clip-rule:evenodd;fill:#2F170B;}
	.st99{fill-rule:evenodd;clip-rule:evenodd;fill:#FFC09F;}
	.st100{opacity:0.2;fill-rule:evenodd;clip-rule:evenodd;fill:#6A3D25;enable-background:new    ;}
	.st101{fill-rule:evenodd;clip-rule:evenodd;fill:#6A3D25;}
	.st102{fill-rule:evenodd;clip-rule:evenodd;fill:#284BF2;}
	.st103{fill-rule:evenodd;clip-rule:evenodd;fill:#EB5D2D;}
	.st104{fill-rule:evenodd;clip-rule:evenodd;fill:#FFB34D;}
	.st105{opacity:0.2;fill-rule:evenodd;clip-rule:evenodd;fill:#2F170B;enable-background:new    ;}
	.st106{opacity:0.3;fill-rule:evenodd;clip-rule:evenodd;fill:#2F170B;enable-background:new    ;}
	.st107{fill:none;stroke:#2F170B;stroke-width:2;}
	.st108{fill-rule:evenodd;clip-rule:evenodd;fill:#FF5A59;}
	.st109{fill-rule:evenodd;clip-rule:evenodd;fill:#E94E4D;}
</style>
<g id="_x37_---guy-drinking-coffee-in-take-away-cup-while-standing-or-sitting">
	<g transform="translate(205.000000, 105.000000)">
		<g id="Group-10_2_" transform="translate(116.000000, 232.000000)">
			<circle id="Oval_29_" class="st18" cx="1153.1" cy="1206.2" r="535.2"/>
			<path id="Path_84_" class="st19" d="M1253.6,794.7c138.9,0,265.5,53,360.7,139.8c47.1,79.6,74,172.5,74,271.7
				c0,295.6-239.6,535.2-535.2,535.2c-138.9,0-265.5-53-360.7-139.8c-47.1-79.6-74-172.5-74-271.7
				C718.4,1034.3,958,794.7,1253.6,794.7z"/>
		</g>
		<rect id="Rectangle_30_" x="285.7" y="1444" class="st52" width="923.5" height="711"/>
		<g id="Group_14_" transform="translate(41.000000, 0.000000)">
			<g id="Group-11_4_" transform="translate(0.000000, 145.722028)">
				
					<g id="Group-5-Copy_6_" transform="translate(81.801251, 225.219115) scale(-1, 1) rotate(40.000000) translate(-81.801251, -225.219115) translate(27.301251, 191.219115)">
					<g id="Group-4_17_" transform="translate(0.556221, 0.079345)">
						
							<rect id="Rectangle_29_" x="56.3" y="1279.5" transform="matrix(0.9903 0.1392 -0.1392 0.9903 169.9903 -7.3285)" class="st0" width="162.3" height="-135.2"/>
						<path id="Path-17_10_" class="st1" d="M287.8,1236.7c9.5-62.6,24.9-92.4,46.4-89.6s4.4,40.3-51,112.3
							c42.8-88.8,73.3-118.8,91.5-89.8c8.7,13.9-13.6,51.5-82.1,90"/>
						<path id="Path-16_10_" class="st2" d="M55.9,1258.4l188.4-70c17,25,39.8,43,68.3,53.8c42.8,16.2,108.9,27.7,146.2,109.4
							l-257.9,26.2l-38.8-26.2l0,26.2l-106.2,11.9L55.9,1258.4z"/>
						<g id="Group-9_11_" transform="translate(48.710331, 23.066335)">
							<line id="Path-25_10_" class="st3" x1="183.9" y1="1232.9" x2="243.6" y2="1197.5"/>
							<line id="Path-25-Copy_10_" class="st3" x1="210" y1="1242.8" x2="269.7" y2="1207.5"/>
							<line id="Path-25-Copy-2_10_" class="st3" x1="236.1" y1="1252.7" x2="295.8" y2="1217.4"/>
						</g>
					</g>
				</g>
				<g id="Group-6_8_" transform="translate(152.773999, 375.277972)">
					<rect id="Rectangle_28_" x="865.4" y="1498.8" class="st0" width="139.1" height="135.2"/>
					<path id="Path-109_4_" class="st2" d="M866.9,1580.8l-4,11.3c-14.7,41.5-22.2,85.1-22.2,129.1v41.2l0,0h193.2l-4.9-69.8
						c-1.8-25.1-6-50-12.6-74.4l-10.2-37.4l0,0H866.9z"/>
					<line id="Path-5_11_" class="st3" x1="877.4" y1="1670.7" x2="987.2" y2="1670.7"/>
					<line id="Path-5-Copy_4_" class="st3" x1="877.4" y1="1643.7" x2="987.2" y2="1643.7"/>
					<line id="Path-5-Copy-2_4_" class="st3" x1="877.4" y1="1612.8" x2="987.2" y2="1612.8"/>
				</g>
				<path id="Path-163" class="st28" d="M1345.6,607.2l53.1,150.4c16.4,46.6,20.2,96.7,11,145.2c-9.3,48.8-28.8,95.1-57.3,135.8
					l-159,227.2l0,0l50,628.2c-81.7,23.4-145,35.1-189.9,35.1c-44.9,0-88.4-11.7-130.5-35.1l-40.8-563.2
					c-2.1-29.6-0.9-59.3,3.8-88.6l5.4-34.2c7-44.1,21.6-86.7,43.2-125.8l94.3-171.1l0,0L823.8,924l78.2,162.3
					c-67.7,52.3-120.4,86.9-158.3,104c-37.9,17-97,32.6-177.2,46.8L419.3,629.7c-10.4-42.9-3.4-88.1,19.3-125.8
					c22.5-37.3,60.4-62.7,103.5-69.1l1.9-0.3c45.5-6.8,92,0.8,133,21.7L1002,622.3l0,0l51.4-69.1c77.8-33.4,133.6-47,167.4-40.8
					C1254.6,518.7,1296.2,550.2,1345.6,607.2z"/>
				<polygon id="Path-164" class="st2" points="690.3,607 823.8,924 1028.9,910.9 				"/>
				<line id="Path-165" class="st3" x1="1091.6" y1="791.6" x2="1021.8" y2="924"/>
				<line id="Path-9_7_" class="st3" x1="992.6" y1="617.8" x2="1042.8" y2="640.9"/>
				<line id="Path-10_6_" class="st3" x1="1301.7" y1="722.7" x2="1386.2" y2="764.5"/>
				<path id="Path-11_5_" class="st5" d="M1204.2,1904l-62.5-629.3c-1.7-16.9,0-34,5-50.2l7.6-24.6
					c149.8-185.8,218.9-333.6,207.2-443.3"/>
				<line id="Path-12_6_" class="st5" x1="830.2" y1="1137.1" x2="690.3" y2="607"/>
			</g>
			<path id="Path-70_1_" class="st0" d="M1438.8,843.8l-61,58.5l-76.1-37.7l-20.8,3.3c-7.2,1.1-14.5-1-19.9-5.8
				c-3-2.6-3.3-7.2-0.6-10.2c0.7-0.8,1.6-1.5,2.6-1.9l2-0.9c8.4-3.5,17.1-6.1,26.1-7.6l5.7-1c12.5-2.1,23.9-8.2,32.6-17.3l34.8-36.7
				l0,0L1438.8,843.8z"/>
			<path id="Path-162" class="st53" d="M1014.8,347.6c-19.6,17.3-34.9,39-44.7,63.2l-52.7,129.4l0,0l-18.5-180.7l-96.5,9.1
				l-4.8,279.8c-0.5,28.6,8.6,56.6,25.9,79.5c16.6,22,43.2,33.9,70.7,31.6l3.4-0.3c29.9-2.5,56.8-18.9,72.7-44.3l62.7-100l0,0
				l11.6,93c132.4-4.9,232.5,12.1,300.2,51.1l58.5-169.7l43.1,91.3L1319,822.1l84.2,70l141.5-129.6c20.2-18.5,34.1-43,39.5-69.9
				c5.4-26.9,2.1-54.8-9.4-79.7l-136.5-295.2c-11-23.9-30.3-43-54.3-53.8c-24.1-10.9-51.1-13.4-76.8-7.1l-224.2,54.9
				C1057.8,318,1034.3,330.3,1014.8,347.6z"/>
			<path id="Path_83_" class="st54" d="M1352.8,469.6l60.4,141l-10-21.2l-58.5,169.7c-67-38.6-165.8-55.7-296.2-51.3l-4,0.1
				l-6.4-51.4l0.4-1.2l205.9,3.5c21.7,0.4,43.2-3.7,63.3-11.8c18.7-7.6,31.6-25.1,33.4-45.2L1352.8,469.6z"/>
			<g id="Group-2_13_" transform="translate(116.773999, 30.000000)">
				<path id="Rectangle_27_" class="st48" d="M741.4,119.6h119.8v15.8l-14.9,174.2c-0.3,4-3.7,7.1-7.7,7.1H764c-4,0-7.4-3.1-7.7-7.1
					l-14.9-174.2l0,0V119.6z"/>
				<path id="Path_82_" class="st55" d="M861.2,121.5l0,13.9l-14.9,174.2c-0.3,4-3.7,7.1-7.7,7.1H764c-4,0-7.4-3.1-7.7-7.1l-6-70.3
					c6.5-8,14.3-14.8,23.5-20.1l1.9-1.1c39.8-22.1,59.1-53.7,58-94.8l-0.1-1.8H861.2z"/>
				<path id="Rectangle-Copy-2_11_" class="st48" d="M776.2,92.5h50.2c10.7,0,19.3,8.7,19.3,19.3l0,0l0,0h-88.9
					C756.9,101.2,765.6,92.5,776.2,92.5z"/>
				<path id="Rectangle_26_" class="st55" d="M741.4,108h119.8c2.1,0,3.9,1.7,3.9,3.9v11.6c0,2.1-1.7,3.9-3.9,3.9H741.4
					c-2.1,0-3.9-1.7-3.9-3.9v-11.6C737.6,109.7,739.3,108,741.4,108z"/>
				<polygon id="Path-52_3_" class="st49" points="741.4,170.1 861.2,170.1 855.3,240.1 747.4,240.1 				"/>
			</g>
			
				<g id="Group-8_6_" transform="translate(125.257421, 70.805491) rotate(60.000000) translate(-125.257421, -70.805491) translate(105.757421, 41.805491)">
				<path id="Path-138" class="st0" d="M546.1-472.2l-15.5-16.1c-8.6-9-15-19.8-18.7-31.7c-3.6-11.7-3.4-24.3,0.5-36l24.4-72.2
					c1.1-3.3,4.7-5,7.9-3.9c1,0.3,1.9,0.9,2.6,1.7c4.5,4.9,6.4,11.7,5,18.2l-11.8,58.1l0,0l19.6-58.2c1.2-3.6,5.1-5.5,8.6-4.3
					c0.7,0.2,1.3,0.6,1.9,1c4.6,3.5,6.8,9.2,5.8,14.9l-11,59.1l0,0l22.1-49.2c1.6-3.6,5.8-5.2,9.4-3.6c0.2,0.1,0.4,0.2,0.7,0.3
					c4,2.3,6,7.1,4.7,11.6l-14.6,52.5l0,0l17.6-28c1.8-2.8,5.4-3.7,8.3-2.1c3,1.6,4.3,5.2,3.1,8.3l-12.3,32.2l0,0
					c6.1-1.1,13,4.8,20.9,17.7l28.6,16.5l-31.8,70.3l-11.8-6.8C586.7-435.6,565.1-452.5,546.1-472.2z"/>
				<line id="Path-5_10_" class="st11" x1="551.3" y1="-605.7" x2="537.9" y2="-542.5"/>
				<line id="Path-6_8_" class="st11" x1="574.5" y1="-589.5" x2="564.2" y2="-534.2"/>
				<line id="Path-7_8_" class="st11" x1="597.1" y1="-563.5" x2="586.7" y2="-526.2"/>
				<line id="Path-8_8_" class="st11" x1="612.3" y1="-540.3" x2="603.1" y2="-515.7"/>
			</g>
			<g id="Group-18" transform="translate(175.773999, 0.000000)">
				<path id="Path-157" class="st4" d="M931.2,129c-13.5-5-21.5-15.8-24.1-32.2c-3.8-24.7,12.1-45.2,58.2-50.5s66.4-16,106.3-36.1
					c39.9-20.1,99.6,48.9,11.2,107.6c-58.9,39.2-100.8,58.7-125.6,58.6L931.2,129z"/>
				<path id="Path-154" class="st0" d="M1085,95.7c-38.6,4-68.9,2.8-90.8-3.5c-32.9-9.4-15,31.8-36.7,58
					c-3.3-18.6-10.9-27.4-22.8-26.3c-17.8,1.7-19.3,34.1,14.7,44.9l-3,132.4c-0.7,31.4,24.2,57.5,55.6,58.2c0.4,0,0.9,0,1.3,0
					c27.2,0,49.3-22.1,49.3-49.3c0-2.7-0.2-5.5-0.7-8.2l-7.9-47.1l0,0l9.9-1.1c8.9-1,17.3-4.5,24.3-10.1
					c6.8-5.3,10.6-13.6,10.4-22.2L1085,95.7L1085,95.7z"/>
				<circle id="Oval_28_" class="st4" cx="1017" cy="141.1" r="3.9"/>
				<path id="Rectangle-Copy_7_" class="st4" d="M1021.2,111.4L998,116c-1.9,0.4-3.2,2.2-2.8,4.2c0,0,0,0,0,0.1
					c0.4,2,2.3,3.2,4.3,2.8l23.3-4.5c1.9-0.4,3.2-2.2,2.8-4.2c0,0,0,0,0-0.1C1025.1,112.3,1023.2,111,1021.2,111.4z"/>
				<circle id="Oval-Copy-3_4_" class="st4" cx="1063.4" cy="141.1" r="3.9"/>
				<path id="Rectangle-Copy-5_1_" class="st4" d="M1053.6,111.4l23.3,4.5c1.9,0.4,3.2,2.2,2.8,4.2c0,0,0,0,0,0.1
					c-0.4,2-2.3,3.2-4.3,2.8l-23.3-4.5c-1.9-0.4-3.2-2.2-2.8-4.2c0,0,0,0,0-0.1C1049.7,112.3,1051.6,111,1053.6,111.4z"/>
				<path id="Path_81_" class="st8" d="M965.3,203l102.7,22.1c5,5.6,9.4,10.9,13.1,15.8c-0.9,1-1.9,1.9-3,2.8
					c-6.6,5.2-14.5,8.6-22.8,9.9l-1.6,0.2l-9.9,1.1l5.6,33.5c-42-8.8-69.9-36.7-83.7-83.5L965.3,203z"/>
				<path id="Path_80_" class="st4" d="M962.9,141.9l20.3,50.6c2.1,5.3,7.2,8.8,12.9,8.8c6,0,11.6-2.7,15.3-7.4l1.9-2.4
					c4.9-6.2,12.4-9.8,20.3-9.8h23.5c5.1,0,9.9,2.5,12.8,6.7l2.4,3.4c1.2,1.8,3.7,2.3,5.5,1c2.2-1.5,4-3.4,5.5-5.6l4-6.2l1.1,40.5
					c0.2,8.3-3.3,16.1-9.5,21.5l-0.8,0.7c-6.6,5.2-14.5,8.6-22.8,9.9l-1.6,0.2l-9.7,1.1l-26.4-1.9c-14-1-27.3-6.6-37.8-15.8
					c-10.4-9.1-16.9-22-18-35.8l-4.3-51.3C959.7,147.5,961.4,144.7,962.9,141.9z"/>
				<path id="Path-155" class="st40" d="M944.7,134.8c-7.4-4.1-12.4-3.2-14.8,2.9c-2.5,6,3.3,13,17.3,20.8"/>
				<path id="Path-156" class="st40" d="M1040.1,141.1l3.6,11.4c1.4,4.6,4.7,8.3,9,10.4c3.9,1.9,6,6.3,4.9,10.5l-0.1,0.3
					c-1.1,4.3-5.3,7.2-9.7,6.6l-6-0.8l0,0"/>
				<path id="Path-158" class="st56" d="M1025.3,199.1h36.8c-2.6,11.1-8.3,16.6-17,16.6S1029.7,210.2,1025.3,199.1z"/>
				<g id="Group-17_4_" transform="translate(12.121814, 29.820524)">
					<circle id="Oval_27_" class="st57" cx="1005.5" cy="111.3" r="17.4"/>
					<circle id="Oval-Copy-4" class="st57" cx="1051.8" cy="111.3" r="17.4"/>
					<line id="Path-159" class="st57" x1="988.2" y1="109.7" x2="941.3" y2="102.5"/>
					<line id="Path-160" class="st57" x1="1023.7" y1="111.3" x2="1035.1" y2="111.3"/>
					<line id="Path-161" class="st57" x1="1069" y1="111.3" x2="1074.2" y2="107.5"/>
				</g>
			</g>
			<path id="Path-166" class="st3" d="M1122.9,301.7c2.9,38.5,22.4,57.8,58.4,57.8c54,0,49.5-70.4,44.3-79.9"/>
			<polygon id="Path-167" class="st54" points="1034.1,614.3 1007.4,462.4 967.1,719.1 			"/>
			<line id="Path-168" class="st11" x1="1352.8" y1="469.6" x2="1403.4" y2="590.7"/>
			<line id="Path-169" class="st11" x1="1446.3" y1="680.6" x2="1490.1" y2="680.6"/>
			<line id="Path-170" class="st11" x1="911.9" y1="504.5" x2="922.5" y2="575.6"/>
			<line id="Path-171" class="st11" x1="1007.4" y1="462.4" x2="1034.1" y2="614.3"/>
		</g>
	</g>
</g>
</svg>
